<svg width="102" height="44" viewBox="0 0 102 44" fill="none" xmlns="http://www.w3.org/2000/svg">
<g clip-path="url(#clip0_16363_9405)">
<path d="M22.4993 38.0426C22.6674 37.9844 22.834 37.9239 22.9996 37.8606V43.9743C22.8333 43.9817 22.6667 43.9878 22.4993 43.9915C22.333 43.9952 22.1662 43.9979 21.999 43.9979C21.8317 43.9979 21.6651 43.9952 21.4986 43.9915C21.3314 43.9878 21.1647 43.9817 20.9984 43.9743V38.4825C21.166 38.4419 21.3329 38.3986 21.4986 38.3529V33.9211C21.6647 33.9282 21.8312 33.9339 21.999 33.9339C22.1668 33.9339 22.3331 33.9282 22.4993 33.9211V38.0426ZM25.5692 33.3901C25.4105 33.4398 25.2498 33.4847 25.0882 33.5279C24.9275 33.5709 24.7653 33.6094 24.6019 33.6458L25.4233 36.7116C25.2746 36.7972 25.1239 36.8801 24.9724 36.9613L26.7212 43.4884C26.8846 43.4526 27.0471 43.415 27.209 43.3758C27.3713 43.3362 27.533 43.2952 27.6938 43.2523C27.8551 43.209 28.0158 43.1643 28.1757 43.1176C28.3361 43.0709 28.4958 43.0225 28.6547 42.9721L26.7498 35.8628C26.6056 35.9646 26.4593 36.0641 26.3119 36.1615L25.5692 33.3901ZM28.3936 32.074C28.2529 32.1635 28.1103 32.2499 27.9658 32.3336C27.8216 32.417 27.6758 32.4979 27.5278 32.5754L28.5686 34.3782C28.444 34.4949 28.3179 34.6096 28.1898 34.7226L32.1224 41.5342C32.2705 41.4571 32.4178 41.3789 32.5641 41.2987C32.7104 41.2182 32.8559 41.1367 33.0001 41.0531C33.1444 40.9695 33.288 40.8846 33.4304 40.798C33.5729 40.7111 33.7146 40.6231 33.8551 40.5331L29.6563 33.2605C29.5401 33.3912 29.4223 33.5206 29.3022 33.6477L28.3936 32.074ZM30.7836 30.076C30.6706 30.1987 30.5562 30.3202 30.4383 30.4381C30.3203 30.556 30.1989 30.6705 30.0761 30.7834L30.9305 31.6378C30.8343 31.7769 30.7361 31.9146 30.6359 32.0508L36.8307 38.2456C36.9539 38.133 37.076 38.0193 37.1968 37.9043C37.3173 37.7889 37.4367 37.6725 37.5548 37.5548C37.6725 37.4367 37.7889 37.3173 37.9043 37.1968C38.0193 37.076 38.1333 36.9539 38.2456 36.8307L31.7482 30.3331C31.6633 30.4834 31.5769 30.6326 31.4875 30.7801L30.7836 30.076ZM32.5755 27.5276C32.498 27.6756 32.4171 27.8215 32.3337 27.9656C32.2501 28.1101 32.1636 28.2528 32.0741 28.3935L32.5677 28.6784C32.5015 28.8327 32.4329 28.9855 32.3623 29.1375L40.5331 33.8548C40.6231 33.7144 40.7114 33.5727 40.798 33.4303C40.885 33.288 40.9699 33.1444 41.0535 32.9999C41.1367 32.8557 41.2186 32.7103 41.2987 32.5639C41.3789 32.4177 41.4574 32.2705 41.5342 32.1222L33.1029 27.2544C33.0502 27.4163 32.9955 27.5772 32.9381 27.7369L32.5755 27.5276ZM33.6458 24.6018C33.6094 24.765 33.5709 24.9274 33.5279 25.088C33.4848 25.2495 33.4399 25.4103 33.3901 25.5691L33.5472 25.6111C33.5117 25.7745 33.4741 25.937 33.4341 26.0986L42.9721 28.6544C43.0225 28.4956 43.0709 28.3359 43.1176 28.1755C43.1643 28.0157 43.209 27.855 43.2523 27.6937C43.2952 27.5328 43.3362 27.3711 43.3758 27.2089C43.415 27.047 43.4526 26.8844 43.4884 26.7211L33.8016 24.1254C33.7808 24.2926 33.7573 24.459 33.7317 24.6245L33.6458 24.6018ZM43.9915 21.4987C43.9881 21.3314 43.9817 21.1646 43.9743 20.9983H33.9035C33.9133 21.1645 33.9211 21.3311 33.9258 21.4987H33.9211C33.9245 21.5783 33.9275 21.6581 33.9296 21.738C33.9323 21.8247 33.9339 21.9116 33.9339 21.999C33.9339 22.0863 33.9323 22.1733 33.9296 22.2599C33.9275 22.3398 33.9245 22.4195 33.9211 22.4993H33.9258C33.9211 22.6667 33.9133 22.8334 33.9035 22.9996H43.9743C43.9817 22.8333 43.9881 22.6665 43.9915 22.4993C43.9952 22.3329 43.998 22.1662 43.998 21.9991C43.998 21.832 43.9952 21.6651 43.9915 21.4987ZM33.3901 18.4287C33.4399 18.5875 33.4848 18.7483 33.5279 18.9097C33.5709 19.0704 33.6094 19.2328 33.6458 19.3961L33.7314 19.3731C33.7572 19.5388 33.7806 19.7051 33.8014 19.8722L43.4881 17.2767C43.4522 17.1135 43.415 16.9508 43.3754 16.7889C43.3362 16.6266 43.2949 16.4649 43.2519 16.3041C43.209 16.1428 43.164 15.9821 43.1173 15.8223C43.0706 15.6619 43.0222 15.5022 42.9718 15.3434L33.4338 17.8991C33.474 18.0607 33.5116 18.2233 33.547 18.3866L33.3901 18.4287ZM32.074 15.6043C32.1635 15.7451 32.25 15.8875 32.3336 16.0321C32.417 16.1764 32.4979 16.3222 32.5754 16.4702L32.9379 16.2608C32.9953 16.4206 33.0501 16.5815 33.1028 16.7434L41.5342 11.8756C41.4571 11.7274 41.3786 11.5801 41.2984 11.4339C41.2182 11.2875 41.1367 11.1421 41.0531 10.9979C40.9696 10.8534 40.8846 10.7098 40.798 10.5675C40.7111 10.4249 40.6228 10.2834 40.5328 10.1429L32.362 14.8603C32.4325 15.0122 32.5013 15.1651 32.5674 15.3194L32.074 15.6043ZM30.0761 13.2144C30.1989 13.3273 30.3203 13.4417 30.4383 13.5597C30.5562 13.6776 30.6706 13.799 30.7836 13.9219L31.4875 13.2179C31.5769 13.3652 31.6633 13.5145 31.7482 13.6648L38.246 7.16721C38.1333 7.04402 38.0196 6.92189 37.9043 6.80127C37.7889 6.68076 37.6725 6.56123 37.5548 6.44328C37.4367 6.32534 37.3173 6.20902 37.1968 6.09379C37.076 5.97855 36.9539 5.86481 36.8307 5.75224L30.6359 11.9472C30.7361 12.0833 30.8343 12.2209 30.9305 12.3601L30.0761 13.2144ZM27.5276 11.4224C27.6756 11.4999 27.8215 11.5808 27.9657 11.6642C28.1101 11.7479 28.2529 11.8343 28.3935 11.9238L29.3021 10.3501C29.4221 10.4772 29.5399 10.6066 29.6561 10.7373L33.8548 3.46485C33.7144 3.37482 33.5729 3.28669 33.4303 3.19974C33.288 3.11308 33.1444 3.02816 33 2.9446C32.8557 2.86117 32.7103 2.77949 32.5639 2.69929C32.4177 2.6191 32.2704 2.54065 32.1223 2.46369L28.1897 9.27522C28.3177 9.38815 28.4439 9.50298 28.5684 9.61971L27.5276 11.4224ZM24.6018 10.3521C24.7651 10.3885 24.9274 10.4271 25.0881 10.4701C25.2497 10.5132 25.4103 10.5581 25.5691 10.6078L26.3116 7.83653C26.4591 7.93397 26.6053 8.03317 26.7495 8.13521L28.6544 1.02597C28.4955 0.975558 28.3358 0.927305 28.1754 0.880402C28.0156 0.833766 27.8549 0.789019 27.6936 0.745888C27.5326 0.70289 27.371 0.661783 27.2087 0.622293C27.0469 0.582934 26.8843 0.545464 26.721 0.509747L24.9722 7.03662C25.1238 7.11788 25.2743 7.20077 25.423 7.28647L24.6018 10.3521ZM21.4986 10.0768C21.6647 10.0699 21.8312 10.0641 21.999 10.0641C22.1668 10.0641 22.3331 10.0699 22.4993 10.0768V5.95538C22.6674 6.01333 22.834 6.07413 22.9996 6.13706V0.0235871C22.8333 0.0161739 22.6667 0.00997367 22.4993 0.00633458C22.333 0.00269549 22.1662 0 21.999 0C21.8317 0 21.6651 0.00256049 21.4986 0.00633458C21.3314 0.0101083 21.1647 0.0161739 20.9984 0.0235871V5.51517C21.166 5.55601 21.3329 5.59915 21.4986 5.64496V10.0768ZM18.4287 10.6078C18.5874 10.5581 18.7481 10.5132 18.9098 10.4701C19.0704 10.4271 19.2328 10.3885 19.3962 10.3521L17.979 5.06286C18.1559 5.07321 18.3321 5.08658 18.5074 5.10234L17.2768 0.509747C17.1135 0.545464 16.951 0.582934 16.7891 0.622293C16.6268 0.661783 16.4651 0.70289 16.3041 0.745888C16.1428 0.789019 15.9822 0.833766 15.8223 0.880402C15.6619 0.92717 15.5022 0.975558 15.3434 1.02597L16.4194 5.04181C16.5907 5.03644 16.7623 5.03278 16.9348 5.03251L18.4287 10.6078ZM15.6043 11.9239C15.7449 11.8345 15.8875 11.7481 16.0322 11.6644C16.1764 11.5809 16.3222 11.5 16.4703 11.4226L13.0444 5.48875C13.2142 5.44859 13.3847 5.41019 13.5565 5.37514L11.8756 2.46383C11.7274 2.54079 11.5801 2.6191 11.4339 2.69929C11.2877 2.77962 11.1422 2.86117 10.9979 2.94473C10.8534 3.0283 10.7098 3.11321 10.5675 3.19988C10.4249 3.28682 10.2833 3.37496 10.143 3.46499L11.5564 5.91332C11.718 5.85902 11.8808 5.8078 12.0445 5.7582L15.6043 11.9239ZM13.2144 13.922C13.3273 13.7992 13.4416 13.6778 13.5597 13.5598C13.6776 13.4419 13.7992 13.3274 13.9219 13.2145L8.18575 7.47841C8.33309 7.38905 8.48243 7.30268 8.63258 7.21776L7.16707 5.75224C7.04388 5.86481 6.92177 5.97855 6.80113 6.09379C6.68065 6.20902 6.56108 6.32534 6.44331 6.44328C6.32536 6.56123 6.20905 6.68062 6.09381 6.80127C5.97857 6.92189 5.86479 7.04402 5.75213 7.16721L6.91491 8.32999C7.05102 8.22971 7.18879 8.13159 7.32787 8.03534L13.2144 13.922ZM11.4224 16.4703C11.4999 16.3223 11.5808 16.1765 11.6642 16.0323C11.7478 15.8876 11.8343 15.7452 11.9238 15.6045L4.01598 11.0388C4.12584 10.9092 4.23732 10.7809 4.35093 10.6546L3.46487 10.1429C3.37496 10.2834 3.28668 10.425 3.19974 10.5675C3.11295 10.7098 3.02817 10.8534 2.94447 10.9979C2.86103 11.1421 2.77936 11.2875 2.69916 11.4339C2.61896 11.5801 2.54065 11.7273 2.46356 11.8756L3.08882 12.2365C3.18546 12.0994 3.28371 11.9636 3.38425 11.8295L11.4224 16.4703ZM10.3521 19.3962C10.3885 19.2329 10.4271 19.0705 10.4701 18.9099C10.5133 18.7484 10.5581 18.5876 10.6078 18.4288L1.13406 15.8903C1.19458 15.7335 1.25685 15.5774 1.32195 15.4228L1.02597 15.3435C0.975692 15.5024 0.927304 15.662 0.880401 15.8224C0.833766 15.9823 0.789018 16.1429 0.745888 16.3043C0.702892 16.4652 0.661782 16.6268 0.622292 16.7891C0.582937 16.9509 0.545467 17.1135 0.509749 17.2769L0.655046 17.3158C0.70114 17.1552 0.750066 16.9956 0.800745 16.8369L10.3521 19.3962ZM10.0768 22.4993C10.0699 22.3332 10.0641 22.1668 10.0641 21.9991C10.0641 21.8314 10.0699 21.665 10.0768 21.4988H0.00633478C0.00633478 21.4988 0.00593051 21.5403 0.00552613 21.5609C0.00269572 21.7068 0 21.8526 0 21.999C0 22.1453 0.00269572 22.2913 0.00552613 22.437C0.00593051 22.4576 0.00633478 22.4991 0.00633478 22.4991L10.0768 22.4993ZM10.6078 25.5692C10.5581 25.4104 10.5132 25.2497 10.4701 25.0882C10.4272 24.9275 10.3885 24.7651 10.3521 24.6019L0.800609 27.1613C0.749931 27.0025 0.701005 26.8431 0.65491 26.6824L0.509614 26.7213C0.545332 26.8846 0.582802 27.0472 0.622156 27.2091C0.66165 27.3714 0.702757 27.533 0.745752 27.6939C0.788883 27.8553 0.833631 28.0159 0.880266 28.1758C0.927037 28.3362 0.975422 28.4959 1.02583 28.6547L1.32182 28.5754C1.25671 28.4208 1.19458 28.2647 1.13393 28.1078L10.6078 25.5692ZM11.924 28.3936C11.8345 28.253 11.7481 28.1104 11.6644 27.9658C11.5809 27.8216 11.5001 27.6757 11.4226 27.5277L3.38452 32.1686C3.28398 32.0345 3.18573 31.8986 3.08909 31.7616L2.46383 32.1225C2.54079 32.2706 2.61924 32.418 2.69943 32.5642C2.77962 32.7105 2.8613 32.8559 2.94473 33.0002C3.0283 33.1447 3.11321 33.2882 3.20001 33.4306C3.28695 33.5732 3.37509 33.7147 3.46514 33.8551L4.3512 33.3435C4.23756 33.2172 4.12611 33.089 4.01625 32.9592L11.924 28.3936ZM13.922 30.7836C13.7992 30.6706 13.6777 30.5562 13.5598 30.4382C13.4419 30.3203 13.3275 30.1989 13.2145 30.0761L7.32801 35.9626C7.18892 35.8665 7.05115 35.7684 6.91504 35.6682L5.75213 36.8307C5.86466 36.9539 5.97844 37.076 6.09381 37.1968C6.20905 37.3173 6.32536 37.4367 6.44331 37.5548C6.56122 37.6728 6.68065 37.7889 6.80126 37.9043C6.92191 38.0196 7.04401 38.1333 7.1672 38.246L8.63272 36.7803C8.48243 36.6954 8.33323 36.6091 8.18588 36.5198L13.922 30.7836ZM16.4705 32.5755C16.3225 32.498 16.1766 32.4171 16.0323 32.3337C15.8878 32.25 15.7452 32.1636 15.6045 32.0741L12.0447 38.2399C11.8811 38.1902 11.7182 38.1391 11.5567 38.0846L10.1432 40.5331C10.2835 40.6231 10.4252 40.7114 10.5678 40.7983C10.7101 40.885 10.8537 40.9699 10.9981 41.0534C11.1424 41.137 11.2878 41.2186 11.4342 41.2991C11.5804 41.3793 11.7277 41.4574 11.8759 41.5342L13.5567 38.6232C13.385 38.588 13.2145 38.5495 13.0447 38.5095L16.4705 32.5755ZM19.3963 33.6458C19.233 33.6094 19.0707 33.5709 18.9099 33.5279C18.7484 33.4847 18.5876 33.4398 18.4289 33.3901L16.9351 38.9656C16.7625 38.9653 16.5908 38.9615 16.4196 38.9561L15.3437 42.9721C15.5026 43.0225 15.6623 43.0709 15.8227 43.1176C15.9826 43.1643 16.1432 43.209 16.3044 43.2523C16.4653 43.2952 16.6269 43.3362 16.7893 43.3758C16.9512 43.415 17.1138 43.4526 17.2771 43.4884L18.5077 38.8956C18.3323 38.9115 18.1562 38.925 17.9792 38.9352L19.3963 33.6458Z" fill="url(#paint0_linear_16363_9405)" style=""/>
<path fill-rule="evenodd" clip-rule="evenodd" d="M76.2824 16.9822C75.5563 12.9215 72.354 8.79492 65.7843 8.79492C58.1915 8.79492 54.0977 14.1098 54.0977 20.6795C54.0977 27.2492 58.0923 32.5642 64.794 32.5642C68.6895 32.5642 70.5382 29.9562 71.4957 28.0415L71.6936 27.6454H72.486L72.2549 28.2066C71.7927 29.3291 71.6608 30.0223 71.6608 30.7816V32.3002H76.2824V20.1515H65.9826V23.8489H71.6276C70.9344 26.4239 69.0526 28.6029 65.6855 28.6029C60.9644 28.6029 58.5873 25.0044 58.5873 20.6797C58.5873 16.2888 61.0964 12.7564 65.8503 12.7564C69.4156 12.7564 71.0995 14.7042 71.8255 16.9822H76.2824ZM83.0122 9.06043H92.454C98.9905 9.06043 101.5 12.4942 101.5 16.4556C101.5 20.417 98.4624 23.8504 92.9825 23.8504H90.4565V20.1529H92.9493C95.4912 20.1529 97.0096 18.6014 97.0096 16.5875C97.0096 14.3426 95.4912 13.0221 92.9493 13.0221H87.5022V32.3017H83.0122V23.8481H77.6804V20.1528H83.0122V9.06043Z" fill="#0000FF" style="fill:#0000FF;fill:color(display-p3 0.0000 0.0000 1.0000);fill-opacity:1;"/>
</g>
<defs>
<linearGradient id="paint0_linear_16363_9405" x1="21.999" y1="0" x2="21.999" y2="43.9979" gradientUnits="userSpaceOnUse">
<stop stop-color="#0000FF" style="stop-color:#0000FF;stop-color:color(display-p3 0.0000 0.0000 1.0000);stop-opacity:1;"/>
<stop offset="0.5" stop-color="#00EDFF" style="stop-color:#00EDFF;stop-color:color(display-p3 0.0000 0.9294 1.0000);stop-opacity:1;"/>
<stop offset="1" stop-color="#56C900" style="stop-color:#56C900;stop-color:color(display-p3 0.3373 0.7882 0.0000);stop-opacity:1;"/>
</linearGradient>
<clipPath id="clip0_16363_9405">
<rect width="101.499" height="44" fill="white" style="fill:white;fill-opacity:1;"/>
</clipPath>
</defs>
</svg>
